<?xml version="1.0" encoding="utf-8"?>
<!-- Generator: Adobe Illustrator 22.0.0, SVG Export Plug-In . SVG Version: 6.00 Build 0)  -->
<svg version="1.1" id="图层_3" xmlns="http://www.w3.org/2000/svg" xmlns:xlink="http://www.w3.org/1999/xlink" x="0px" y="0px"
	 viewBox="0 0 720 300" style="enable-background:new 0 0 720 300;" xml:space="preserve">
<style type="text/css">
	.st0{fill:#F37221;}
</style>
<g>
	<g id="XMLID_1_">
		<g>
			<circle class="st0" cx="521" cy="131" r="2"/>
			<path class="st0" d="M565.2,113l11.9-20.5c0.3-0.5,0.1-1.1-0.4-1.4l-1.7-1c-0.5-0.3-1.1-0.1-1.4,0.4l-13,22.5l0,0H565.2z
				 M574.1,113l7.4-12.7c0.3-0.5,0.1-1.1-0.4-1.4l-1.7-1c-0.5-0.3-1.1-0.1-1.4,0.4l-8.5,14.7l0,0H574.1z M583.5,115.1H530V134
				c0,1.1-0.9,2-2,2s-2-0.9-2-2v-18.9h-3v10.6c0,1.1-0.9,2-2,2s-2-0.9-2-2v-10.6h-10.9c-0.5,0-1,0.4-1,0.9c-0.1,1.3-0.1,2.6-0.1,3.9
				c0,15.8,7.1,29.6,17.6,37.1h27.1H567c10.6-7.5,17.7-21.3,17.7-37.1c0-1.3-0.1-2.6-0.2-3.9C584.5,115.5,584,115.1,583.5,115.1z
				 M565,159.6h-38c-1.1,0-2,0.9-2,2v1.7c0,1.1,0.9,2,2,2h38c1.1,0,2-0.9,2-2v-1.7C567,160.5,566.1,159.6,565,159.6z M545.8,63.3
				c34.7,0,62.9,28.2,62.9,62.9c0,34.7-28.1,62.9-62.9,62.9c-34.7,0-62.9-28.2-62.9-62.9C482.9,91.5,511.1,63.3,545.8,63.3z"/>
		</g>
		<g>
		</g>
	</g>
</g>
</svg>
