<svg id="baseline-location_on-24px" xmlns="http://www.w3.org/2000/svg" width="21.229" height="20" viewBox="0 0 21.229 20">
  <defs>
    <style>
      .cls-1 {
        fill: #ffbebe;
      }

      .cls-2 {
        fill: none;
      }
    </style>
  </defs>
  <path id="路径_849" data-name="路径 849" class="cls-1" d="M11.192,2A6.016,6.016,0,0,0,5,7.833c0,4.375,6.192,10.833,6.192,10.833s6.192-6.458,6.192-10.833A6.016,6.016,0,0,0,11.192,2Zm0,7.917A2.151,2.151,0,0,1,8.98,7.833,2.151,2.151,0,0,1,11.192,5.75,2.151,2.151,0,0,1,13.4,7.833,2.151,2.151,0,0,1,11.192,9.917Z" transform="translate(-0.577 -0.333)"/>
  <path id="路径_850" data-name="路径 850" class="cls-2" d="M0,0H21.229V20H0Z"/>
</svg>