<svg xmlns="http://www.w3.org/2000/svg" width="17.179" height="17.174" viewBox="0 0 17.179 17.174">
  <defs>
    <style>
      .cls-1 {
        fill: #8e8e92;
        stroke: rgba(0,0,0,0);
      }
    </style>
  </defs>
  <path id="search" class="cls-1" d="M14.7,15.972h0l-4.617-4.615a6.245,6.245,0,0,1-3.773,1.261,6.325,6.325,0,1,1,5.324-2.932c-.076.121-.164.247-.275.4L15.972,14.7,14.7,15.971ZM6.308.9A5.361,5.361,0,0,0,2.015,3.036a5.383,5.383,0,0,0,.457,7.076l0,0a.075.075,0,0,0,.012.012.024.024,0,0,0,.007.007l0,0a5.4,5.4,0,0,0,8.368-6.734,5.447,5.447,0,0,0-2.2-1.957A5.345,5.345,0,0,0,6.308.9Z" transform="translate(0.5 0.5)"/>
</svg>